<svg xmlns="http://www.w3.org/2000/svg" width="184.52" height="35" viewBox="0 0 184.52 35"><path d="M0 0h108.05v35H0z" class="svg__rect"/><path fill="#FFF" d="M106.05 0h78.47v35h-78.47z" class="svg__rect"/><path fill="#FFF" d="M17.33 22h-3.11v-8.53h2.92q1.45 0 2.2.58.76.58.76 1.73 0 .58-.32 1.05-.31.47-.92.73.69.19 1.07.7.38.52.38 1.25 0 1.2-.78 1.85-.77.64-2.2.64Zm-1.63-3.85v2.67h1.65q.69 0 1.09-.35.39-.34.39-.96 0-1.33-1.36-1.36H15.7Zm0-3.49v2.4h1.45q.69 0 1.08-.31.39-.32.39-.89 0-.63-.36-.91-.36-.29-1.12-.29H15.7Zm8.94 4.5v-5.69h1.48v5.71q0 .85.43 1.3.43.45 1.28.45 1.71 0 1.71-1.8v-5.66h1.48v5.7q0 1.36-.87 2.15-.87.8-2.32.8-1.47 0-2.33-.79-.86-.78-.86-2.17ZM37.15 22h-1.48v-8.53h1.48V22Zm10.17 0h-5.36v-8.53h1.48v7.35h3.88V22Zm5.8-7.34h-2.63v-1.19h6.76v1.19h-2.66V22h-1.47v-7.34ZM68.47 22h-1.48v-8.53h5.42v1.19h-3.94v2.54h3.43v1.18h-3.43V22Zm7.83-4v-.48q0-1.24.44-2.2.44-.95 1.25-1.46.8-.51 1.85-.51 1.04 0 1.84.5.81.5 1.25 1.44.44.94.45 2.19v.48q0 1.25-.44 2.2-.43.94-1.24 1.45-.8.51-1.85.51-1.04 0-1.85-.51t-1.25-1.44q-.45-.94-.45-2.17Zm1.48-.54v.5q0 1.4.55 2.17t1.52.77q.98 0 1.51-.75t.53-2.19v-.45q0-1.42-.53-2.17-.54-.76-1.52-.76-.96 0-1.51.75-.54.76-.55 2.13ZM89.32 22h-1.48v-8.53h3q1.48 0 2.28.66.8.66.8 1.92 0 .85-.41 1.43t-1.15.89l1.91 3.55V22h-1.58l-1.72-3.29h-1.65V22Zm0-7.34v2.86h1.53q.75 0 1.17-.37.42-.38.42-1.04 0-.68-.39-1.06-.39-.37-1.16-.39h-1.57Z" class="svg__text"/><path d="M126.62 22h-6.38v-8.4h2.38v6.51h4V22Zm6.8 0h-2.38v-8.4h2.38V22Zm7.51 0h-2.33v-8.4h1.95l3.71 4.47V13.6h2.33V22h-1.95l-3.71-4.48V22Zm10.75-3.74V13.6h2.38v4.59q0 2.01 1.59 2.01 1.58 0 1.58-2.01V13.6h2.35v4.66q0 1.87-1.04 2.89t-2.91 1.02q-1.88 0-2.91-1.02-1.04-1.02-1.04-2.89ZM166.52 22h-2.72l3.06-4.25-2.93-4.15h2.68l1.68 2.42 1.65-2.42h2.58l-2.93 4.06 3.12 4.34h-2.74l-1.74-2.6-1.71 2.6Z" class="svg__text"/></svg>