<svg xmlns="http://www.w3.org/2000/svg" width="247.17" height="35" viewBox="0 0 247.17 35"><path d="M0 0h108.68v35H0z" class="svg__rect"/><path fill="#FFF" d="M106.68 0h140.49v35H106.68z" class="svg__rect"/><path fill="#FFF" d="m15.6 22-1.97-8.53h1.47l1.33 6.41 1.63-6.41h1.24l1.61 6.42 1.31-6.42h1.47L21.72 22h-1.41l-1.63-6.23L17.02 22H15.6Zm11.89-4v-.48q0-1.24.45-2.2.44-.95 1.24-1.46.81-.51 1.85-.51 1.05 0 1.85.5.81.5 1.25 1.44.44.94.44 2.19v.48q0 1.25-.43 2.2-.43.94-1.24 1.45t-1.85.51q-1.04 0-1.85-.51t-1.26-1.44q-.44-.94-.45-2.17Zm1.49-.54v.5q0 1.4.54 2.17.55.77 1.53.77t1.51-.75q.53-.75.53-2.19v-.45q0-1.42-.54-2.17-.53-.76-1.52-.76-.96 0-1.5.75-.54.76-.55 2.13ZM40.52 22h-1.48v-8.53h3q1.47 0 2.28.66.8.66.8 1.92 0 .85-.41 1.43-.42.58-1.15.89l1.91 3.55V22h-1.59l-1.71-3.29h-1.65V22Zm0-7.34v2.86h1.52q.75 0 1.18-.37.42-.38.42-1.04 0-.68-.39-1.06-.39-.37-1.17-.39h-1.56ZM51 22h-1.49v-8.53H51v4l.82-1.01 2.49-2.99h1.8l-3.17 3.78L56.29 22h-1.76l-2.57-3.69-.96 1.03V22Zm8.63-2.58h1.49q0 .73.48 1.13.48.4 1.37.4.78 0 1.17-.32.39-.31.39-.83 0-.56-.4-.86-.4-.31-1.43-.62-1.03-.31-1.64-.69-1.16-.73-1.16-1.91 0-1.03.84-1.7.84-.67 2.18-.67.89 0 1.59.33.7.33 1.09.93.4.61.4 1.35h-1.47q0-.67-.42-1.05-.42-.37-1.2-.37-.73 0-1.13.31-.4.31-.4.86 0 .47.43.79.44.31 1.43.6 1 .3 1.6.68.61.38.89.87.28.48.28 1.14 0 1.07-.82 1.7-.82.63-2.22.63-.92 0-1.7-.35-.78-.34-1.21-.94-.43-.61-.43-1.41ZM76 18v-.48q0-1.24.45-2.2.44-.95 1.24-1.46.81-.51 1.85-.51 1.05 0 1.85.5.81.5 1.25 1.44.44.94.44 2.19v.48q0 1.25-.43 2.2-.43.94-1.24 1.45t-1.85.51q-1.04 0-1.85-.51-.82-.51-1.26-1.44-.44-.94-.45-2.17Zm1.49-.54v.5q0 1.4.54 2.17.55.77 1.53.77t1.51-.75q.53-.75.53-2.19v-.45q0-1.42-.54-2.17-.53-.76-1.52-.76-.96 0-1.5.75-.54.76-.55 2.13ZM89.03 22h-1.48v-8.53h1.48l3.81 6.07v-6.07h1.47V22h-1.48l-3.8-6.05V22Z" class="svg__text"/><path d="M123.07 22h-2.2v-8.4h1.95l2.96 4.85 2.88-4.85h1.95l.03 8.4h-2.18l-.03-4.45-2.16 3.62h-1.05l-2.15-3.5V22Zm14.85-3.05-3.2-5.35h2.51l1.99 3.34 1.99-3.34h2.3l-3.21 5.39V22h-2.38v-3.05ZM156.77 22h-2.2v-8.4h1.96l2.95 4.85 2.88-4.85h1.96l.02 8.4h-2.18l-.02-4.45-2.17 3.62h-1.05l-2.15-3.5V22Zm14.15 0h-2.43l3.71-8.4h2.35l3.71 8.4h-2.47l-.66-1.63h-3.55l-.66 1.63Zm2.44-6.07-1.09 2.68h2.16l-1.07-2.68Zm8.63 1.87q0-1.26.59-2.26.6-.99 1.65-1.55 1.06-.56 2.37-.56 1.16 0 2.08.41.92.41 1.54 1.18l-1.51 1.37q-.82-.99-1.98-.99-.69 0-1.22.3t-.83.84q-.3.55-.3 1.26t.3 1.25q.3.55.83.85.53.3 1.22.3 1.16 0 1.98-.98l1.51 1.36q-.61.77-1.54 1.18-.92.41-2.08.41-1.31 0-2.37-.56-1.05-.56-1.65-1.56-.59-.99-.59-2.25Zm15.14 4.2h-2.38v-8.4h2.38v3.16h3.24V13.6h2.38V22h-2.38v-3.28h-3.24V22Zm13.16 0h-2.38v-8.4h2.38V22Zm7.5 0h-2.33v-8.4h1.96l3.71 4.47V13.6h2.32V22h-1.95l-3.71-4.48V22Zm17.57 0h-6.74v-8.4h6.59v1.84h-4.24v1.41h3.73v1.78h-3.73v1.54h4.39V22Z" class="svg__text"/></svg>